Coordinates
version=1
nRows=13
nColumns=40
inDegrees=yes

Units are S.I. units (second, meters, Newtons, ...)
If the header above contains a line with 'inDegrees', this indicates whether rotational values are in degrees (yes) or radians (no).

endheader
time	pelvis_tilt	pelvis_list	pelvis_rotation	pelvis_tx	pelvis_ty	pelvis_tz	hip_flexion_r	hip_adduction_r	hip_rotation_r	knee_angle_r	knee_angle_r_beta	ankle_angle_r	subtalar_angle_r	mtp_angle_r	hip_flexion_l	hip_adduction_l	hip_rotation_l	knee_angle_l	knee_angle_l_beta	ankle_angle_l	subtalar_angle_l	mtp_angle_l	lumbar_extension	lumbar_bending	lumbar_rotation	arm_flex_r	arm_add_r	arm_rot_r	elbow_flex_r	pro_sup_r	wrist_flex_r	wrist_dev_r	arm_flex_l	arm_add_l	arm_rot_l	elbow_flex_l	pro_sup_l	wrist_flex_l	wrist_dev_l
      2.00000000	      8.89902464	     -5.99880573	     -4.20912729	     -0.26315260	      1.06376465	     -1.00556388	      1.57614910	     -3.93260411	     -0.06829586	     80.26913738	      1.40096074	      2.22070875	      0.00000000	      0.00000000	     -3.56965181	     -1.71557468	    -12.35474542	     17.61718447	      0.30747787	     -2.13821743	      0.00000000	      0.00000000	    -13.25757562	      2.09481928	      8.78256772	     88.56574596	    -20.45088700	     46.81203574	     35.33981455	     85.64874921	      0.00000000	      0.00000000	     87.68998226	    -21.79449919	     55.08827522	     47.66873765	     86.36942487	      0.00000000	      0.00000000
      2.00500000	      8.78394065	     -6.01639282	     -4.16504619	     -0.26305368	      1.06367536	     -1.00567837	      1.53401120	     -3.92288710	     -0.10210061	     80.26645464	      1.40091391	      1.38822498	      0.00000000	      0.00000000	     -3.41982147	     -1.75845370	    -12.23420422	     17.67712167	      0.30852398	     -2.09493208	      0.00000000	      0.00000000	    -13.13889464	      2.13613254	      8.67514704	     88.56507242	    -20.37849167	     46.87868027	     35.29140930	     85.53983136	      0.00000000	      0.00000000	     87.71920685	    -21.94182256	     55.25146213	     47.78685709	     86.24520008	      0.00000000	      0.00000000
      2.01000000	      8.79610101	     -5.97793462	     -4.15434484	     -0.26294320	      1.06363763	     -1.00577964	      1.36732914	     -4.00376317	     -0.10848227	     80.27476594	      1.40105897	      0.66685369	      0.00000000	      0.00000000	     -3.41882713	     -1.73666434	    -12.36837982	     17.71594819	      0.30920163	     -2.09425265	      0.00000000	      0.00000000	    -13.15417504	      2.07650967	      8.66773054	     88.52576677	    -20.38633954	     46.63370218	     35.29510576	     85.64047424	      0.00000000	      0.00000000	     87.80868784	    -21.91127750	     55.40415417	     47.71993583	     86.29107115	      0.00000000	      0.00000000
      2.01500000	      8.76493581	     -5.94306380	     -4.16852857	     -0.26279544	      1.06358551	     -1.00581416	      1.23287357	     -4.05471069	     -0.07904055	     80.25019842	      1.40063019	     -0.02289181	      0.00000000	      0.00000000	     -3.38762972	     -1.72313267	    -12.49783094	     17.73230745	      0.30948715	     -2.14004109	      0.00000000	      0.00000000	    -13.11905327	      2.04196059	      8.62615246	     88.53694786	    -20.31031979	     46.57118867	     35.23432483	     85.74773514	      0.00000000	      0.00000000	     87.81365528	    -21.99231198	     55.37071699	     47.79435965	     86.32812039	      0.00000000	      0.00000000
      2.02000000	      8.74720254	     -5.86087138	     -4.15765580	     -0.26257016	      1.06359491	     -1.00594403	      1.08467989	     -4.17853346	     -0.09974932	     80.21223382	      1.39996758	     -0.79591419	      0.00000000	      0.00000000	     -3.37925297	     -1.64767744	    -12.55313943	     17.71984474	      0.30926963	     -2.19008511	      0.00000000	      0.00000000	    -13.08422235	      1.95082722	      8.58916378	     88.49859963	    -20.28778279	     46.42319840	     35.20177408	     85.83745333	      0.00000000	      0.00000000	     87.82798721	    -21.98500578	     55.37585144	     47.77024141	     86.35719652	      0.00000000	      0.00000000
      2.02500000	      8.61787421	     -5.75012568	     -4.10643814	     -0.26255792	      1.06324231	     -1.00610175	      1.08519774	     -4.34866862	     -0.20291735	     80.24850856	      1.40060069	     -1.33046916	      0.00000000	      0.00000000	     -3.14694692	     -1.57329891	    -12.53415239	     17.89359337	      0.31230212	     -2.09292043	      0.00000000	      0.00000000	    -12.96772574	      1.84732720	      8.41397523	     88.57223282	    -20.28072482	     46.93847780	     35.30306871	     84.45963857	      0.00000000	      0.00000000	     88.05858721	    -22.28607988	     56.15465228	     48.08037102	     85.09919491	      0.00000000	      0.00000000
      2.03000000	      8.61873208	     -5.85014008	     -4.05945962	     -0.26241647	      1.06329315	     -1.00620421	      0.89549562	     -4.21914366	     -0.18874940	     80.09816427	      1.39797669	     -2.33854234	      0.00000000	      0.00000000	     -3.16565714	     -1.70332276	    -12.56133444	     17.88889497	      0.31222012	     -2.11321596	      0.00000000	      0.00000000	    -12.96148530	      1.96500065	      8.45218857	     88.52913346	    -20.27592334	     46.56613088	     35.14456144	     85.76153938	      0.00000000	      0.00000000	     87.86839116	    -22.02141749	     55.33163154	     47.77399612	     86.36730256	      0.00000000	      0.00000000
      2.03500000	      8.54485951	     -5.80500638	     -4.03858993	     -0.26231450	      1.06313973	     -1.00627236	      0.81672011	     -4.29355375	     -0.22827927	     80.03774545	      1.39692218	     -3.00275557	      0.00000000	      0.00000000	     -3.06224140	     -1.68279268	    -12.56613986	     17.94013193	      0.31311437	     -2.12472022	      0.00000000	      0.00000000	    -12.88941325	      1.91435632	      8.42546316	     88.51771235	    -20.28748786	     46.46146813	     35.16313048	     85.78315765	      0.00000000	      0.00000000	     87.91802725	    -22.02396903	     55.36727876	     47.79015322	     86.34656666	      0.00000000	      0.00000000
      2.04000000	      8.51273780	     -5.78269656	     -4.00996625	     -0.26224751	      1.06303295	     -1.00635714	      0.70223337	     -4.32285078	     -0.24066972	     79.97549315	      1.39583568	     -3.71617110	      0.00000000	      0.00000000	     -3.02121208	     -1.67627674	    -12.60367573	     17.95335079	      0.31334508	     -2.13533343	      0.00000000	      0.00000000	    -12.86599142	      1.90004390	      8.37389646	     88.54723332	    -20.27025423	     46.53122818	     35.11372303	     85.77143695	      0.00000000	      0.00000000	     87.95100328	    -22.07528537	     55.39816767	     47.84761093	     86.35712869	      0.00000000	      0.00000000
      2.04500000	      8.45487050	     -5.73585472	     -3.98750828	     -0.26216569	      1.06285707	     -1.00643446	      0.60082323	     -4.39848360	     -0.29770268	     79.89732261	      1.39447134	     -4.38444486	      0.00000000	      0.00000000	     -2.92433543	     -1.64807560	    -12.61959084	     18.02009810	      0.31451004	     -2.12696883	      0.00000000	      0.00000000	    -12.80828350	      1.84986604	      8.31975100	     88.54708401	    -20.24417769	     46.45932697	     35.10368635	     85.76916590	      0.00000000	      0.00000000	     88.00115526	    -22.08866362	     55.42139958	     47.83484809	     86.35032294	      0.00000000	      0.00000000
      2.05000000	      8.41146079	     -5.74858219	     -3.96349521	     -0.26210914	      1.06273761	     -1.00648583	      0.51368878	     -4.38563198	     -0.30330183	     79.83056642	      1.39330623	     -5.09398887	      0.00000000	      0.00000000	     -2.82284733	     -1.69714814	    -12.67480606	     18.14079727	      0.31661664	     -2.09072425	      0.00000000	      0.00000000	    -12.76910499	      1.86095928	      8.31267034	     88.57754257	    -20.30052592	     46.58637537	     35.09774975	     85.66894914	      0.00000000	      0.00000000	     88.03573219	    -22.06573395	     55.46552795	     47.83594767	     86.29913564	      0.00000000	      0.00000000
      2.05500000	      8.37307705	     -5.73267375	     -3.92500685	     -0.26199613	      1.06260330	     -1.00654137	      0.39890849	     -4.40719867	     -0.34700596	     79.71936956	      1.39136548	     -5.90399775	      0.00000000	      0.00000000	     -2.72254923	     -1.72602859	    -12.86279033	     18.28860940	      0.31919645	     -2.05999654	      0.00000000	      0.00000000	    -12.73637315	      1.82350979	      8.29087484	     88.58403482	    -20.38433058	     46.71589696	     35.13035221	     85.55615799	      0.00000000	      0.00000000	     88.09700949	    -22.00780790	     55.51366136	     47.78335745	     86.23252317	      0.00000000	      0.00000000
      2.06000000	      8.35789742	     -5.68946404	     -3.90196585	     -0.26185477	      1.06250403	     -1.00662310	      0.23449412	     -4.47482628	     -0.37323865	     79.61415119	      1.38952907	     -6.22730310	      0.00000000	      0.00000000	     -2.69911056	     -1.68093755	    -12.76109993	     18.29205949	      0.31925667	     -2.09836368	      0.00000000	      0.00000000	    -12.71733830	      1.79985698	      8.21574271	     88.59419122	    -20.24918673	     46.48276183	     35.00380550	     85.69757402	      0.00000000	      0.00000000	     88.08539119	    -22.10271699	     55.42919415	     47.87140273	     86.36548342	      0.00000000	      0.00000000
